STARTFONT 2.3
FONT -FontForge-Fredoka One-Book-R-Normal--14-140-72-72-P-80-ISO10646-1
SIZE 14 72 72  4
FONTBOUNDINGBOX 19 18 -2 -4
COMMENT "Generated by fontforge, http://fontforge.sourceforge.net"
COMMENT "Copyright (c) 2011 Milena B Brandao (milenabbrandao@gmail.com), with Reserved Font Name "Fredoka""
STARTPROPERTIES 40
FOUNDRY "FontForge"
FAMILY_NAME "Fredoka One"
WEIGHT_NAME "Book"
SLANT "R"
SETWIDTH_NAME "Normal"
ADD_STYLE_NAME ""
PIXEL_SIZE 14
POINT_SIZE 140
RESOLUTION_X 72
RESOLUTION_Y 72
SPACING "P"
AVERAGE_WIDTH 80
CHARSET_REGISTRY "ISO10646"
CHARSET_ENCODING "1"
FONTNAME_REGISTRY ""
CHARSET_COLLECTIONS "ISO10646-1"
BITS_PER_PIXEL 4
FONT_NAME "FredokaOne-Regular"
FACE_NAME "Fredoka One"
COPYRIGHT "Copyright (c) 2011 Milena B Brandao (milenabbrandao@gmail.com), with Reserved Font Name "Fredoka""
FONT_VERSION "1.001"
FONT_ASCENT 11
FONT_DESCENT 3
UNDERLINE_POSITION -1
UNDERLINE_THICKNESS 1
X_HEIGHT 7
CAP_HEIGHT 10
RAW_ASCENT 800
RAW_DESCENT 200
NORM_SPACE 4
RELATIVE_WEIGHT 40
RELATIVE_SETWIDTH 50
SUPERSCRIPT_X 0
SUPERSCRIPT_Y 6
SUPERSCRIPT_SIZE 9
SUBSCRIPT_X 0
SUBSCRIPT_Y 1
SUBSCRIPT_SIZE 9
AVG_LOWERCASE_WIDTH 78
AVG_UPPERCASE_WIDTH 97
ENDPROPERTIES
CHARS 235
STARTCHAR space
ENCODING 32
SWIDTH 253 0
DWIDTH 4 0
BBX 1 1 0 0
BITMAP
00
ENDCHAR
STARTCHAR exclam
ENCODING 33
SWIDTH 267 0
DWIDTH 4 0
BBX 4 11 0 0
BITMAP
0430
5FF1
6FF2
6FF2
6FF2
6FF2
5FF1
0430
1870
6FF2
4ED1
ENDCHAR
STARTCHAR quotedbl
ENCODING 34
SWIDTH 429 0
DWIDTH 6 0
BBX 6 6 0 5
BITMAP
130031
9F77F9
9F88FA
8F66F8
5F33F5
080080
ENDCHAR
STARTCHAR numbersign
ENCODING 35
SWIDTH 749 0
DWIDTH 10 0
BBX 11 11 0 0
BITMAP
000230013000
000EF00DF200
002FE00FF000
08AFE9AFE910
3FFFFFFFFF30
04BF84AF9300
13CF63BF7100
AFFFFFFFFA00
7AFEAAFF9400
04FB03FC0000
04E603D70000
ENDCHAR
STARTCHAR dollar
ENCODING 36
SWIDTH 475 0
DWIDTH 7 0
BBX 7 13 0 -2
BITMAP
004B1000
008F2000
08FFE500
5FECFA00
7F903100
3FFD9300
04BFFE10
2811CF40
8FD9EF20
1CFFF700
009F3000
006F1000
00010000
ENDCHAR
STARTCHAR percent
ENCODING 37
SWIDTH 838 0
DWIDTH 12 0
BBX 12 12 0 -1
BITMAP
00330001D200
0CFFA008D000
5F9AF22E5000
6F25F49C0000
3FEEF3F40000
06DC5AB02100
00003F4CFF70
0000BA6F9CF1
0004F28F06F2
000C905FCEE0
004F2009EE50
001400000000
ENDCHAR
STARTCHAR ampersand
ENCODING 38
SWIDTH 748 0
DWIDTH 10 0
BBX 11 12 0 -1
BITMAP
0039B9300000
03FFFFE10000
08FC2EF50000
08FC8FF30000
05FFFF800000
05FFF6002000
3FFFF80BF700
8FEAFFAFF400
9FE2BFFFE300
5FFFFFFFFF10
07EFFD8BEE10
000110000000
ENDCHAR
STARTCHAR quotesingle
ENCODING 39
SWIDTH 208 0
DWIDTH 3 0
BBX 3 6 0 5
BITMAP
1300
9F70
9F80
8F60
5F30
0800
ENDCHAR
STARTCHAR parenleft
ENCODING 40
SWIDTH 384 0
DWIDTH 5 0
BBX 6 15 0 -4
BITMAP
002AC1
02EFE1
0AF800
0EF100
4FB000
6FA000
8F8000
8F8000
7F9000
5FB000
1FE000
0BF500
04FE90
007FF2
000120
ENDCHAR
STARTCHAR parenright
ENCODING 41
SWIDTH 384 0
DWIDTH 5 0
BBX 5 15 0 -4
BITMAP
8C6000
AFF600
03FE10
00AF50
006FA0
004FC0
003FD0
002FE0
003FC0
005FB0
008F70
01DF20
6CFA00
BFB100
120000
ENDCHAR
STARTCHAR asterisk
ENCODING 42
SWIDTH 503 0
DWIDTH 7 0
BBX 7 7 0 4
BITMAP
00262000
009F9000
6DDFDD70
BFFFFFB0
1AFFFB20
0EFFFE00
09E3D900
ENDCHAR
STARTCHAR plus
ENCODING 43
SWIDTH 527 0
DWIDTH 7 0
BBX 7 8 0 0
BITMAP
00021000
005FB000
006FC000
7EEFFEC0
9FFFFFF0
148FD420
006FB000
00174000
ENDCHAR
STARTCHAR comma
ENCODING 44
SWIDTH 238 0
DWIDTH 3 0
BBX 3 6 0 -3
BITMAP
3960
AFE0
6FD0
0D90
8D10
1000
ENDCHAR
STARTCHAR hyphen
ENCODING 45
SWIDTH 433 0
DWIDTH 6 0
BBX 6 4 0 1
BITMAP
022220
9FFFF9
8FFFF9
011110
ENDCHAR
STARTCHAR period
ENCODING 46
SWIDTH 237 0
DWIDTH 3 0
BBX 3 3 0 0
BITMAP
3960
AFE0
7FB0
ENDCHAR
STARTCHAR slash
ENCODING 47
SWIDTH 526 0
DWIDTH 7 0
BBX 8 12 0 -1
BITMAP
00001D90
00007FF1
0001EF90
0007FF20
000DFA00
006FF300
00DFA000
05FF3000
0DFB0000
5FF40000
BFB00000
4B300000
ENDCHAR
STARTCHAR zero
ENCODING 48
SWIDTH 608 0
DWIDTH 9 0
BBX 9 12 0 -1
BITMAP
0015630000
03EFFF9000
0DFFFFF500
5FF72DFC00
8FE007FF10
9FD005FF20
9FD005FF20
8FF108FF00
4FFA6EFB00
0CFFFFF400
02BFFE7000
0002310000
ENDCHAR
STARTCHAR one
ENCODING 49
SWIDTH 407 0
DWIDTH 6 0
BBX 6 11 0 0
BITMAP
000220
006FF1
08FFF2
8FFFF2
9FFFF2
056FF2
005FF2
005FF2
005FF2
005FF2
003EE1
ENDCHAR
STARTCHAR two
ENCODING 50
SWIDTH 609 0
DWIDTH 9 0
BBX 9 11 0 0
BITMAP
0015620000
05EFFF8000
2FFFFFF600
8FF42DFC00
AFC00AFD00
38505FFB00
0018FFF300
03DFFE4000
3EFFE87600
9FFFFFFF40
5FFFFFFE20
ENDCHAR
STARTCHAR three
ENCODING 51
SWIDTH 608 0
DWIDTH 9 0
BBX 9 12 0 -1
BITMAP
0015630000
05EFFFB100
1EFFFFF900
2EF51BFD00
0235AEFC00
000CFFF300
0007DFFB00
6D8007FF20
8FF74BFF10
2EFFFFF900
03CFFE8000
0001200000
ENDCHAR
STARTCHAR four
ENCODING 52
SWIDTH 592 0
DWIDTH 8 0
BBX 8 11 0 0
BITMAP
01410141
08FC0BFA
0CFB0CFB
1FF80CFB
4FF40CFB
8FF54CFB
BFFFFFFB
9FFFFFFB
00000CFB
00000BFB
000008E8
ENDCHAR
STARTCHAR five
ENCODING 53
SWIDTH 530 0
DWIDTH 7 0
BBX 7 12 0 -1
BITMAP
01444420
0DFFFFC0
2FFFFFB0
4FF53310
6FFCA300
8FFFFF40
6FFBFFD0
02208FF0
5E95CFE0
AFFFFF80
1AFFF900
00131000
ENDCHAR
STARTCHAR six
ENCODING 54
SWIDTH 560 0
DWIDTH 8 0
BBX 8 12 0 -1
BITMAP
00001330
002BFFF2
02EFFFF2
0CFF9420
4FF71000
8FFFFC30
9FFFFFE1
9FE34FF6
6FF34FF6
1EFFFFE1
04DFFC30
00021000
ENDCHAR
STARTCHAR seven
ENCODING 55
SWIDTH 561 0
DWIDTH 8 0
BBX 8 11 0 0
BITMAP
14444430
BFFFFFF8
BFFFFFF9
1344AFF4
0002EFB0
000BFF30
005FF800
00CFE100
02FF7000
04FF3000
03EE1000
ENDCHAR
STARTCHAR eight
ENCODING 56
SWIDTH 582 0
DWIDTH 8 0
BBX 8 12 0 -1
BITMAP
00156200
05EFFF70
2FFFFFF3
5FF52FF7
2FFCBFF4
0BFFFFD0
5FFDCFF7
9FE00CFB
8FF54EFA
3FFFFFF4
04CFFD50
00022000
ENDCHAR
STARTCHAR nine
ENCODING 57
SWIDTH 560 0
DWIDTH 8 0
BBX 8 11 0 0
BITMAP
00265200
08FFFF50
5FFEEFE1
9FD02FF5
8FF68FF7
2EFFFFF6
029CCFF4
0001BFE1
068DFF70
5FFFFA00
3FEC6000
ENDCHAR
STARTCHAR colon
ENCODING 58
SWIDTH 238 0
DWIDTH 3 0
BBX 3 7 0 0
BITMAP
7FC0
9FE0
2850
0000
3960
9FE0
7FB0
ENDCHAR
STARTCHAR semicolon
ENCODING 59
SWIDTH 237 0
DWIDTH 3 0
BBX 3 10 0 -3
BITMAP
7FC0
9FE0
2850
0000
3960
AFE0
7FD0
0D90
8D10
1000
ENDCHAR
STARTCHAR less
ENCODING 60
SWIDTH 627 0
DWIDTH 9 0
BBX 9 10 0 0
BITMAP
0000003800
000019FF70
0006EFFC20
04CFFE6000
7FFF910000
AFFD400000
19FFFA2000
003CFFE700
00006EFF70
0000018D20
ENDCHAR
STARTCHAR equal
ENCODING 61
SWIDTH 478 0
DWIDTH 7 0
BBX 7 6 0 0
BITMAP
4AAAA910
9FFFFF50
26777610
5AAAAA10
9FFFFF40
26666610
ENDCHAR
STARTCHAR greater
ENCODING 62
SWIDTH 627 0
DWIDTH 9 0
BBX 9 10 0 0
BITMAP
2820000000
AFE7000000
5EFFD40000
019FFFA200
0003BFFF40
00006FFF70
003CFFE700
19FFFA2000
BFFC400000
5D60000000
ENDCHAR
STARTCHAR question
ENCODING 63
SWIDTH 512 0
DWIDTH 7 0
BBX 7 11 0 0
BITMAP
01575000
1DFFFC10
9FFBEF80
8F607FB0
0103CF90
005FFE20
008FC100
00152000
00494000
00CFC000
009F9000
ENDCHAR
STARTCHAR at
ENCODING 64
SWIDTH 908 0
DWIDTH 13 0
BBX 13 12 0 -2
BITMAP
00002553100000
003CFFFFE91000
04FFA778DFD200
1EE4288787FA00
6F72EFFFC0BF10
9F29F57FA07F40
9F2BF58F806F50
8F46FFFF609F30
4FA0699F76FD00
0CF8103FFFE300
02DFFE63871000
0016AC50000000
ENDCHAR
STARTCHAR A
ENCODING 65
SWIDTH 765 0
DWIDTH 11 0
BBX 11 12 0 -1
BITMAP
000013000000
0000BF700000
0004FFE10000
000BFFF70000
004FFFFE1000
00BFE6FF7000
03FFB4EFD000
0AFFFFFFF600
3FFDCCCEFD00
9FF20006FF50
7F900000DE30
010000001000
ENDCHAR
STARTCHAR B
ENCODING 66
SWIDTH 646 0
DWIDTH 9 0
BBX 9 11 0 0
BITMAP
0344441000
6FFFFFE500
7FFFFFFE20
7FF336FF50
7FF038FF40
7FF0DFFF10
7FF06AFF60
7FF000DFA0
7FF878FF80
7FFFFFFE20
4EFFFEC300
ENDCHAR
STARTCHAR C
ENCODING 67
SWIDTH 679 0
DWIDTH 10 0
BBX 10 12 0 -1
BITMAP
0000354100
004DFFFE70
06FFFFFFF1
2FFE624B70
7FF4000000
9FD0000000
9FE0000000
6FF6000100
1EFF968EA0
03EFFFFFF1
0029EFFC40
0000020000
ENDCHAR
STARTCHAR D
ENCODING 68
SWIDTH 704 0
DWIDTH 10 0
BBX 10 11 0 0
BITMAP
0344420000
6FFFFFC300
7FFFFFFE40
7FF448FFD0
7FF0006FF5
7FF0001FF7
7FF0001FF6
7FF0009FF3
7FF88CFFB0
7FFFFFFC10
4EFFFD8100
ENDCHAR
STARTCHAR E
ENCODING 69
SWIDTH 638 0
DWIDTH 9 0
BBX 9 11 0 0
BITMAP
0344444400
5FFFFFFF70
7FFFFFFF70
7FF4333300
7FF6663000
7FFFFFF000
7FFFFFD000
7FF2220000
7FF8777720
7FFFFFFF80
4EFFFFFF50
ENDCHAR
STARTCHAR F
ENCODING 70
SWIDTH 637 0
DWIDTH 9 0
BBX 9 11 0 0
BITMAP
0344444400
5FFFFFFF70
7FFFFFFF70
7FF4333300
7FF6663000
7FFFFFE000
7FFFFFD000
7FF2221000
7FF0000000
7FF0000000
4EC0000000
ENDCHAR
STARTCHAR G
ENCODING 71
SWIDTH 714 0
DWIDTH 10 0
BBX 10 12 0 -1
BITMAP
0001565100
006EFFFE70
07FFFFFFF1
2FFD414A50
7FF3023320
9FD00FFFF5
9FE00CDFF7
5FF7001FF7
0DFFA68FF7
03EFFFFFF4
002AFFFD50
0000121000
ENDCHAR
STARTCHAR H
ENCODING 72
SWIDTH 699 0
DWIDTH 10 0
BBX 10 11 0 0
BITMAP
0320000330
6FE0003FF2
7FF0004FF3
7FF0004FF3
7FF3226FF3
7FFFFFFFF3
7FFDDDEFF3
7FF0004FF3
7FF0004FF3
7FF0004FF3
4EC0002DD2
ENDCHAR
STARTCHAR I
ENCODING 73
SWIDTH 257 0
DWIDTH 4 0
BBX 3 11 0 0
BITMAP
0320
6FE0
7FF0
7FF0
7FF0
7FF0
7FF0
7FF0
7FF0
7FF0
4EC0
ENDCHAR
STARTCHAR J
ENCODING 74
SWIDTH 549 0
DWIDTH 8 0
BBX 8 12 0 -1
BITMAP
00000320
00004FF1
00005FF2
00005FF2
00005FF2
00005FF2
00005FF2
03006FF2
7FB6DFE0
9FFFFF70
19FFE700
00120000
ENDCHAR
STARTCHAR K
ENCODING 75
SWIDTH 639 0
DWIDTH 9 0
BBX 9 11 0 0
BITMAP
0320003300
6FE003EF40
7FF02EFF30
7FF2DFF500
7FFCFF5000
7FFFF50000
7FFFF90000
7FF9FF9000
7FF1AFF900
7FF00CFF50
4EC001CD20
ENDCHAR
STARTCHAR L
ENCODING 76
SWIDTH 587 0
DWIDTH 8 0
BBX 8 11 0 0
BITMAP
03200000
6FE00000
7FF00000
7FF00000
7FF00000
7FF00000
7FF00000
7FF00000
7FF21110
7FFFFFFB
4EFFFFFB
ENDCHAR
STARTCHAR M
ENCODING 77
SWIDTH 870 0
DWIDTH 12 0
BBX 12 11 0 0
BITMAP
032000000130
6FF300002EF8
7FFD1000CFF9
7FFFB009FFF9
7FFFF75FFFF9
7FFAFFEFCDF9
7FF1DFFE2DF9
7FF03FF50DF9
7FF003300DF9
7FF000000DF9
4EC000000AE6
ENDCHAR
STARTCHAR N
ENCODING 78
SWIDTH 720 0
DWIDTH 10 0
BBX 10 11 0 0
BITMAP
0320000130
5FF3000DF7
7FFD100EF8
7FFFA00EF8
7FFFF60EF8
7FFBFF3EF8
7FF2DFDEF8
7FF03FFFF8
7FF007FFF8
7FF000AFF8
4EC0001CE5
ENDCHAR
STARTCHAR O
ENCODING 79
SWIDTH 775 0
DWIDTH 11 0
BBX 11 12 0 -1
BITMAP
000145400000
006EFFFD4000
07FFFFFFF500
2FFE526EFE10
7FF30006FF50
9FE00001FF70
9FE00001FF70
6FF50007FF40
1EFF859FFC00
04FFFFFFE300
003CFFFB2000
000012100000
ENDCHAR
STARTCHAR P
ENCODING 80
SWIDTH 632 0
DWIDTH 9 0
BBX 9 11 0 0
BITMAP
0344420000
6FFFFFB200
7FFFFFFD10
7FF438FF50
7FF000FF70
7FF559FF50
7FFFFFFD00
7FFFFFA200
7FF3210000
7FF0000000
4EC0000000
ENDCHAR
STARTCHAR Q
ENCODING 81
SWIDTH 830 0
DWIDTH 12 0
BBX 12 12 0 -1
BITMAP
000145400000
006EFFFD4000
07FFFFFFF500
2FFE526EFE10
7FF30006FF50
9FE00001FF70
9FE00001FF60
6FF50007FF30
1EFF859FFF70
04FFFFFFFFF5
003BFFFB5DD1
000012100010
ENDCHAR
STARTCHAR R
ENCODING 82
SWIDTH 631 0
DWIDTH 9 0
BBX 9 11 0 0
BITMAP
0344420000
6FFFFFC200
7FFFFFFD10
7FF438FF50
7FF000FF70
7FF559FF50
7FFFFFFD10
7FFFFFFA00
7FF33AFF10
7FF003FF70
4EC000BE40
ENDCHAR
STARTCHAR S
ENCODING 83
SWIDTH 583 0
DWIDTH 8 0
BBX 8 12 0 -1
BITMAP
00255300
07FFFFA0
3FFFEFF2
6FF20850
5FFA5100
0CFFFFA1
016CFFF8
07201DFC
8FE54EFB
5FFFFFF5
05DFFD50
00011000
ENDCHAR
STARTCHAR T
ENCODING 84
SWIDTH 731 0
DWIDTH 10 0
BBX 10 11 0 0
BITMAP
2444444442
BFFFFFFFFF
7BBCFFDBB9
0001FF5000
0001FF5000
0001FF5000
0001FF5000
0001FF5000
0001FF5000
0001FF5000
0000DE3000
ENDCHAR
STARTCHAR U
ENCODING 85
SWIDTH 726 0
DWIDTH 10 0
BBX 10 12 0 -1
BITMAP
0320000141
6FE0000CF8
7FF1000DF9
7FF1000DF9
7FF1000DF9
7FF1000DF9
6FF1000EF9
4FF5003FF7
0DFE76DFF2
05FFFFFF70
005DFFE600
0000220000
ENDCHAR
STARTCHAR V
ENCODING 86
SWIDTH 783 0
DWIDTH 11 0
BBX 11 11 0 0
BITMAP
041000001300
9FA00000BF80
8FF20003FF80
1FF9000AFE10
09FF102FF800
02FF809FE100
009FE2EF8000
002FFDFE1000
0009FFF80000
0002FFF10000
00007E700000
ENDCHAR
STARTCHAR W
ENCODING 87
SWIDTH 999 0
DWIDTH 14 0
BBX 14 11 0 0
BITMAP
04100022000140
AFA002FE200BFA
9FE108FF701FF8
4FF50DFFC05FF3
0DFA3FFFF2AFD0
08FE8FEEF8FF80
03FFFFAAFFFF30
00DFFF45FFFD00
008FFE01EFF700
002FF900AFF200
000AE3003D9000
ENDCHAR
STARTCHAR X
ENCODING 88
SWIDTH 741 0
DWIDTH 10 0
BBX 11 12 0 -1
BITMAP
062000006200
9FD10008FE10
7FFC006FFC00
09FFA5FFD100
00AFFFFE2000
000CFFF30000
003EFFF70000
02DFFDFF6000
1DFF51DFF500
AFF7002EFE10
5F900004EB00
010000001000
ENDCHAR
STARTCHAR Y
ENCODING 89
SWIDTH 686 0
DWIDTH 10 0
BBX 10 11 0 0
BITMAP
0510000430
9FB0003FF3
8FF600CFF2
0DFE16FF70
03FFBEFC00
008FFFF200
000CFF7000
0007FF1000
0007FF1000
0007FF1000
0004FD0000
ENDCHAR
STARTCHAR Z
ENCODING 90
SWIDTH 643 0
DWIDTH 9 0
BBX 9 11 0 0
BITMAP
1444444300
9FFFFFFF40
8FFFFFFF40
02228FF900
0002EFD100
000CFF3000
008FF70000
04FFB00000
1EFF766610
8FFFFFFF90
5FFFFFFF70
ENDCHAR
STARTCHAR bracketleft
ENCODING 91
SWIDTH 348 0
DWIDTH 5 0
BBX 5 15 0 -4
BITMAP
3CCC60
7FFF90
7FD310
7FC000
7FC000
7FC000
7FC000
7FC000
7FC000
7FC000
7FC000
7FC000
7FFD60
5FFF90
022200
ENDCHAR
STARTCHAR backslash
ENCODING 92
SWIDTH 528 0
DWIDTH 7 0
BBX 8 12 0 -1
BITMAP
5D500000
AFD00000
3FF50000
0BFC0000
04FF5000
00CFC000
005FF400
000CFB00
0005FF30
0000DFB0
00006FF2
00000A70
ENDCHAR
STARTCHAR bracketright
ENCODING 93
SWIDTH 348 0
DWIDTH 5 0
BBX 5 15 0 -4
BITMAP
8CCB20
BFFF40
13EF50
00EF50
00EF50
00EF50
00EF50
00EF50
00EF50
00EF50
00EF50
00EF50
8DFF50
BFFF30
122200
ENDCHAR
STARTCHAR asciicircum
ENCODING 94
SWIDTH 526 0
DWIDTH 7 0
BBX 7 5 0 3
BITMAP
00083000
00BFE300
0BFEFE30
5FD29FB0
06200620
ENDCHAR
STARTCHAR underscore
ENCODING 95
SWIDTH 826 0
DWIDTH 12 0
BBX 12 3 0 -4
BITMAP
7BBBBBBBBBB2
BFFFFFFFFFF5
133333333320
ENDCHAR
STARTCHAR grave
ENCODING 96
SWIDTH 482 0
DWIDTH 7 0
BBX 5 3 1 8
BITMAP
4B7200
9FFF60
16AE30
ENDCHAR
STARTCHAR a
ENCODING 97
SWIDTH 596 0
DWIDTH 8 0
BBX 8 8 0 0
BITMAP
00152152
05EFFDFB
3FFFFFFC
8FF43EFC
9FD00CFC
7FFAAFFC
1DFFFFFC
02AEC9E9
ENDCHAR
STARTCHAR b
ENCODING 98
SWIDTH 592 0
DWIDTH 8 0
BBX 8 11 0 0
BITMAP
3C900000
7FF00000
7FF00000
7FF25300
7FFEFF90
7FFFFFF6
7FF73DFC
7FF109FE
7FFC8FFB
7FFFFFF3
4EBAEC40
ENDCHAR
STARTCHAR c
ENCODING 99
SWIDTH 517 0
DWIDTH 7 0
BBX 7 8 0 0
BITMAP
00156300
05EFFF80
3FFFFFB0
8FF52820
9FE00000
7FFA8D40
1DFFFFC0
019EFC30
ENDCHAR
STARTCHAR d
ENCODING 100
SWIDTH 598 0
DWIDTH 8 0
BBX 8 11 0 0
BITMAP
000005C7
00000AFC
00000AFC
00153AFC
04EFFEFC
2EFFFFFC
7FF53EFC
8FE00BFC
5FFA9FFC
0CFFFFFC
01AEC9E9
ENDCHAR
STARTCHAR e
ENCODING 101
SWIDTH 573 0
DWIDTH 8 0
BBX 8 9 0 -1
BITMAP
00278500
07FFFFC1
3FFECFF7
8FF42DFA
9FFFFFF5
7FF52340
1EFFFFF3
03CFFFD2
00013200
ENDCHAR
STARTCHAR f
ENCODING 102
SWIDTH 450 0
DWIDTH 6 0
BBX 7 11 0 0
BITMAP
002AC600
01EFFA00
06FF9400
2AFF5300
BFFFFF10
AFFFFE00
08FF1000
08FF0000
08FF0000
07FF0000
05FB0000
ENDCHAR
STARTCHAR g
ENCODING 103
SWIDTH 585 0
DWIDTH 8 0
BBX 8 12 0 -4
BITMAP
00252262
06FFFEF9
3FFFFFF9
8FE23FF9
9FD00EF9
6FFBCFF9
0CFFFFF9
018B8CF9
05934FF7
0EFFFFE2
05DFFC30
00021000
ENDCHAR
STARTCHAR h
ENCODING 104
SWIDTH 605 0
DWIDTH 8 0
BBX 8 11 0 0
BITMAP
3C900000
7FF00000
7FF00000
7FF14300
7FFDFFA0
7FFFFFF6
7FF62CFC
7FF008FD
7FF008FE
7FF008FE
4EC006EB
ENDCHAR
STARTCHAR i
ENCODING 105
SWIDTH 255 0
DWIDTH 4 0
BBX 3 11 0 0
BITMAP
3C90
6FF0
2970
0530
6FE0
7FF0
7FF0
7FF0
7FF0
7FF0
4EC0
ENDCHAR
STARTCHAR j
ENCODING 106
SWIDTH 252 0
DWIDTH 4 0
BBX 5 15 -2 -4
BITMAP
003C90
006FE0
002860
001630
006FE0
007FF0
007FF0
007FF0
007FF0
007FF0
007FE0
14CFD0
BFFF60
BFE600
120000
ENDCHAR
STARTCHAR k
ENCODING 107
SWIDTH 536 0
DWIDTH 8 0
BBX 8 11 0 0
BITMAP
3CA00000
7FF00000
7FF00000
7FF00000
7FF08F50
7FF9FFA0
7FFFFB10
7FFFF400
7FFEFF60
7FF3EFF3
4EC03DC0
ENDCHAR
STARTCHAR l
ENCODING 108
SWIDTH 327 0
DWIDTH 5 0
BBX 5 11 0 0
BITMAP
3CA000
7FF000
7FF000
7FF000
7FF000
7FF000
7FF000
7FF000
6FF610
4FFF50
0AEF40
ENDCHAR
STARTCHAR m
ENCODING 109
SWIDTH 851 0
DWIDTH 12 0
BBX 12 8 0 0
BITMAP
053153015300
6FEDFF8DFF80
7FFFFFFFFFF2
7FF58FF76FF5
7FF14FF31FF5
7FF04FF31FF5
7FF04FF31FF5
4EC02ED10DE3
ENDCHAR
STARTCHAR n
ENCODING 110
SWIDTH 606 0
DWIDTH 8 0
BBX 8 8 0 0
BITMAP
15315400
6FEDFFB0
7FFFFFF7
7FF62CFC
7FF008FE
7FF008FE
7FF008FE
4EC005EB
ENDCHAR
STARTCHAR o
ENCODING 111
SWIDTH 600 0
DWIDTH 8 0
BBX 8 9 0 -1
BITMAP
00278400
06FFFFB1
3FFFFFF9
8FF30BFE
9FD007FF
6FF96EFC
1DFFFFF5
02AFFD50
00011000
ENDCHAR
STARTCHAR p
ENCODING 112
SWIDTH 582 0
DWIDTH 8 0
BBX 8 12 0 -4
BITMAP
15315200
6FEEFF80
7FFFFFF5
7FF52DFA
7FF10AFB
7FFCAFF8
7FFFFFD1
7FE8B910
7FE00000
7FE00000
5FD00000
02100000
ENDCHAR
STARTCHAR q
ENCODING 113
SWIDTH 582 0
DWIDTH 8 0
BBX 8 12 0 -4
BITMAP
00252251
06FFFEF8
3FFFFFF9
8FE34FF9
9FD00EF9
6FFBCFF9
0CFFFFF9
018B9DF9
00000CF9
00000CF9
00000BF8
00000120
ENDCHAR
STARTCHAR r
ENCODING 114
SWIDTH 457 0
DWIDTH 6 0
BBX 7 8 0 0
BITMAP
05316400
6FFEFF20
7FFFFE00
7FF30100
7FF00000
7FF00000
7FF00000
4EC00000
ENDCHAR
STARTCHAR s
ENCODING 115
SWIDTH 489 0
DWIDTH 7 0
BBX 7 9 0 -1
BITMAP
01676200
1EFFFF10
5FE79900
4FFC9300
0AFFFF30
1757EF70
8FFDFF50
3BFFE900
00010000
ENDCHAR
STARTCHAR t
ENCODING 116
SWIDTH 449 0
DWIDTH 6 0
BBX 6 10 0 0
BITMAP
04D900
07FE00
2AFE53
BFFFFF
AFFFFE
08FE11
08FE00
07FF51
04FFFA
007DF7
ENDCHAR
STARTCHAR u
ENCODING 117
SWIDTH 606 0
DWIDTH 8 0
BBX 8 8 0 0
BITMAP
15300153
6FF007FD
7FF008FE
7FF008FE
6FF109FE
3FFB8EFE
0BFFFFFE
01AEC8EB
ENDCHAR
STARTCHAR v
ENCODING 118
SWIDTH 638 0
DWIDTH 9 0
BBX 9 8 0 0
BITMAP
1620002600
AFB000CF90
7FF405FF60
1DFC0DFC00
05FFAFF400
00BFFFA000
003FFF2000
0008F70000
ENDCHAR
STARTCHAR w
ENCODING 119
SWIDTH 793 0
DWIDTH 11 0
BBX 11 8 0 0
BITMAP
162005101610
BFA09FB09FC0
8FF2EFF2EF90
2FFCFFFCFF30
0AFFFFFFFC00
04FFF8FFF600
00DFE0CFE100
005E705E7000
ENDCHAR
STARTCHAR x
ENCODING 120
SWIDTH 567 0
DWIDTH 8 0
BBX 8 8 0 0
BITMAP
06100160
9FC12DF8
7FFCDFF6
08FFFF70
01EFFD10
1CFFFFC1
AFF88FF9
5F7008E4
ENDCHAR
STARTCHAR y
ENCODING 121
SWIDTH 604 0
DWIDTH 8 0
BBX 9 12 0 -4
BITMAP
1720005300
AFC004FF20
6FF60BFE00
0CFE4FF700
03FFEFE100
009FFF9000
001EFF2000
000EFA0000
006FF40000
00CFC00000
00DF500000
0013000000
ENDCHAR
STARTCHAR z
ENCODING 122
SWIDTH 586 0
DWIDTH 8 0
BBX 8 8 0 0
BITMAP
05666650
4FFFFFF8
3FFFFFF6
011AFF70
01AFF600
1CFFB773
9FFFFFFC
5FFFFFFA
ENDCHAR
STARTCHAR braceleft
ENCODING 123
SWIDTH 381 0
DWIDTH 5 0
BBX 6 15 0 -4
BITMAP
003BB0
00DFF1
02FE20
03FD00
03FD00
04FC00
8EF700
BFF500
17FB00
03FC00
03FC00
03FD00
01FFC0
006FF1
000110
ENDCHAR
STARTCHAR bar
ENCODING 124
SWIDTH 217 0
DWIDTH 3 0
BBX 3 15 0 -4
BITMAP
3C40
6F70
7F70
7F70
7F70
7F70
7F70
7F70
7F70
7F70
7F70
7F70
7F70
6F60
0300
ENDCHAR
STARTCHAR braceright
ENCODING 125
SWIDTH 381 0
DWIDTH 5 0
BBX 6 15 0 -4
BITMAP
8B6000
BFF300
19F700
08F800
08F800
07F900
02FFC0
01EFF1
06FB20
08F700
08F700
08F700
8EF500
BFA000
110000
ENDCHAR
STARTCHAR asciitilde
ENCODING 126
SWIDTH 651 0
DWIDTH 9 0
BBX 8 4 0 2
BITMAP
00241031
08FFE8FC
3FFFFFFA
08718B80
ENDCHAR
STARTCHAR exclamdown
ENCODING 161
SWIDTH 268 0
DWIDTH 4 0
BBX 4 12 0 -4
BITMAP
0110
4FE1
6FF2
1750
1650
5FF2
6FF2
6FF2
6FF2
6FF2
5FF1
0210
ENDCHAR
STARTCHAR cent
ENCODING 162
SWIDTH 434 0
DWIDTH 6 0
BBX 6 12 0 -2
BITMAP
001400
005F30
006F40
05DFD4
4FFFF8
9F9041
9F9140
3FFFF9
05DFD4
006F40
005F30
000100
ENDCHAR
STARTCHAR sterling
ENCODING 163
SWIDTH 675 0
DWIDTH 9 0
BBX 10 11 0 0
BITMAP
0000242000
003CFFFC40
01DFFFFFD0
05FF403B70
08FC000000
9FFFED0000
9EFFED0000
00FF400000
03FF744430
0BFFFFFFF3
09FFFFFFE2
ENDCHAR
STARTCHAR currency
ENCODING 164
SWIDTH 677 0
DWIDTH 9 0
BBX 9 11 0 0
BITMAP
3B10000780
7FC8779FE0
1CFFFFFF50
0DFD9BFF50
3FE1008FA0
5FC0004FC0
4FE0006FB0
1EFB78EF60
0BFFFFFF40
6FDA99BFD0
5D200009A0
ENDCHAR
STARTCHAR yen
ENCODING 165
SWIDTH 677 0
DWIDTH 9 0
BBX 10 11 0 0
BITMAP
0310000310
8FA0003FE2
8FF500CFE1
1DFD17FF60
04FFAEFB00
009FFFE200
06FFFFFE00
027BFF7500
039CFF9800
05DEFFDB00
0004EB0000
ENDCHAR
STARTCHAR brokenbar
ENCODING 166
SWIDTH 215 0
DWIDTH 3 0
BBX 3 15 0 -4
BITMAP
3C30
6F70
7F70
7F70
7F70
6F70
2720
0300
6F60
7F70
7F70
7F70
7F70
5F50
0100
ENDCHAR
STARTCHAR section
ENCODING 167
SWIDTH 560 0
DWIDTH 8 0
BBX 8 15 0 -4
BITMAP
017AA710
0CFFFFB0
5FF9AF90
6FE20200
2FFFC820
1EFFFFE1
6FF68FF6
6FF41EF6
1EFFFFF2
03BFFFF2
04115FF6
7FC23FF6
6FFFFFE2
06EFFC40
00021000
ENDCHAR
STARTCHAR dieresis
ENCODING 168
SWIDTH 489 0
DWIDTH 7 0
BBX 7 3 0 8
BITMAP
3CA05C70
6FF1AFC0
29804A60
ENDCHAR
STARTCHAR copyright
ENCODING 169
SWIDTH 711 0
DWIDTH 10 0
BBX 10 10 0 1
BITMAP
0014664100
05EEBBEE40
2F728837E1
7C2EEEC0D6
999E1120A8
999D0000A8
7B4FCCB0C6
3F44BC54F2
07FB98BF70
0038998300
ENDCHAR
STARTCHAR ordfeminine
ENCODING 170
SWIDTH 445 0
DWIDTH 6 0
BBX 6 6 0 4
BITMAP
07EBD8
5FEEFA
9F34FA
7FBBFA
1CFEFA
003131
ENDCHAR
STARTCHAR guillemotleft
ENCODING 171
SWIDTH 668 0
DWIDTH 9 0
BBX 10 8 0 0
BITMAP
0003100210
006FB03ED1
06FF83EFB0
5FF93EFB00
BFE18FF300
2DFD2CFE30
02DFB1CFE1
002C701BA0
ENDCHAR
STARTCHAR logicalnot
ENCODING 172
SWIDTH 526 0
DWIDTH 7 0
BBX 8 6 0 1
BITMAP
12222210
BFFFFFF1
BFFFFFF2
14444CF2
00000AF2
00000130
ENDCHAR
STARTCHAR registered
ENCODING 174
SWIDTH 711 0
DWIDTH 10 0
BBX 10 10 0 1
BITMAP
0014664100
05EEBBEE40
2F77A937E1
7C0DEEE1D6
990DA7F2A8
990DFFC0A8
7B0DA9F1C6
3F474197F2
07FB99CF70
0038998300
ENDCHAR
STARTCHAR degree
ENCODING 176
SWIDTH 407 0
DWIDTH 6 0
BBX 6 6 0 5
BITMAP
04A920
4FEFD1
9F16F4
8F7AF3
1CFF90
003200
ENDCHAR
STARTCHAR plusminus
ENCODING 177
SWIDTH 505 0
DWIDTH 7 0
BBX 7 8 0 0
BITMAP
00393000
008F9100
8FFFFF90
8FFFFF90
018F9100
00273000
4DEEEE50
5EFFFF60
ENDCHAR
STARTCHAR twosuperior
ENCODING 178
SWIDTH 455 0
DWIDTH 6 0
BBX 7 8 0 3
BITMAP
01672000
1DFFE300
8FDBFB00
9F64FC00
136EF800
1BFFA100
8FFFFF10
6EFFFE10
ENDCHAR
STARTCHAR threesuperior
ENCODING 179
SWIDTH 457 0
DWIDTH 6 0
BBX 6 9 0 2
BITMAP
016730
1CFFF6
4FC9FC
044AFA
008FF9
8F52FF
6FEDFC
09FFC2
000100
ENDCHAR
STARTCHAR acute
ENCODING 180
SWIDTH 605 0
DWIDTH 8 0
BBX 5 3 2 8
BITMAP
049B00
CFFF20
9D9300
ENDCHAR
STARTCHAR mu
ENCODING 181
SWIDTH 601 0
DWIDTH 8 0
BBX 8 12 0 -4
BITMAP
05300152
6FE008FC
7FF009FD
7FF009FD
7FF10AFD
7FFB9FFD
7FFFFFFD
7FFBC7D9
7FF00000
7FF00000
5FD00000
01000000
ENDCHAR
STARTCHAR paragraph
ENCODING 182
SWIDTH 614 0
DWIDTH 9 0
BBX 8 13 0 -4
BITMAP
06899995
6FFFFDFC
8FFFC2FC
8FFFC2FC
3EFFC2FC
015FC2FC
001FC2FC
001FC2FC
001FC2FC
001FC2FC
001FC2FC
001FB1FB
00021031
ENDCHAR
STARTCHAR periodcentered
ENCODING 183
SWIDTH 237 0
DWIDTH 3 0
BBX 3 3 0 3
BITMAP
3960
AFE0
6EB0
ENDCHAR
STARTCHAR cedilla
ENCODING 184
SWIDTH 559 0
DWIDTH 8 0
BBX 4 4 2 -3
BITMAP
1520
6EE1
4AF2
3950
ENDCHAR
STARTCHAR onesuperior
ENCODING 185
SWIDTH 321 0
DWIDTH 5 0
BBX 4 8 0 3
BITMAP
0044
07FE
7FFE
8FFE
02FE
02FE
02FE
01EC
ENDCHAR
STARTCHAR ordmasculine
ENCODING 186
SWIDTH 439 0
DWIDTH 6 0
BBX 6 6 0 4
BITMAP
05CD70
4FFEF6
9F31FB
8F87FA
1DFFE3
016610
ENDCHAR
STARTCHAR guillemotright
ENCODING 187
SWIDTH 669 0
DWIDTH 9 0
BBX 10 8 0 0
BITMAP
0300030000
9F806FA000
6FF84EFA00
06FF84EFA0
00CFD0AFF1
0BFE48FF60
9FE46FF600
5D403D6000
ENDCHAR
STARTCHAR onequarter
ENCODING 188
SWIDTH 786 0
DWIDTH 11 0
BBX 11 12 0 -1
BITMAP
0195000C3000
1CFA007D0000
2EFA01E60000
00FA08D00000
00FA1E500000
00E99C5C5C10
0012F4BE7F20
0009B0EB8F20
003F32FFFF20
00AA0055AF20
03F300005E10
014000000000
ENDCHAR
STARTCHAR onehalf
ENCODING 189
SWIDTH 804 0
DWIDTH 11 0
BBX 11 12 0 -1
BITMAP
0195000C3000
1CFA007D0000
2EFA01E60000
00FA08D00000
00FA1E500000
00E99C4DD400
0012F5EEDE10
0009B2F69F20
003F302AFB00
00AA01DFFA30
03F301DFFF50
014000000000
ENDCHAR
STARTCHAR threequarters
ENCODING 190
SWIDTH 842 0
DWIDTH 12 0
BBX 11 12 0 -1
BITMAP
03AA3002D100
0EEEE00AB000
065BE03F3000
028ED1BA0000
3F89F6F20000
0BFFAC9898B0
00325E2EBAE0
0000D83F9BE0
0006E15FFFE0
000D70155CE0
006E100008C0
002300000000
ENDCHAR
STARTCHAR questiondown
ENCODING 191
SWIDTH 511 0
DWIDTH 7 0
BBX 7 12 0 -4
BITMAP
00263000
009FD000
008FD000
00031000
004B6000
04DFA000
3FFD3000
9FB01720
8FC38FD0
3FFFFF80
04DFE900
00010000
ENDCHAR
STARTCHAR Agrave
ENCODING 192
SWIDTH 765 0
DWIDTH 11 0
BBX 11 15 0 -1
BITMAP
000440000000
000EFE900000
0008DFE00000
000016300000
0000BF700000
0004FFE10000
000BFFF70000
004FFFFE1000
00BFE6FF7000
03FFB4EFD000
0AFFFFFFF600
3FFDCCCEFD00
9FF20006FF50
7F900000DE30
010000001000
ENDCHAR
STARTCHAR Aacute
ENCODING 193
SWIDTH 765 0
DWIDTH 11 0
BBX 11 15 0 -1
BITMAP
000003740000
0002DFFC0000
0002FEA40000
000033000000
0000BF700000
0004FFE10000
000BFFF70000
004FFFFE1000
00BFE6FF7000
03FFB4EFD000
0AFFFFFFF600
3FFDCCCEFD00
9FF20006FF50
7F900000DE30
010000001000
ENDCHAR
STARTCHAR Acircumflex
ENCODING 194
SWIDTH 765 0
DWIDTH 11 0
BBX 11 15 0 -1
BITMAP
000169400000
004FFFFE1000
002EB7DC0000
000013000000
0000BF700000
0004FFE10000
000BFFF70000
004FFFFE1000
00BFE6FF7000
03FFB4EFD000
0AFFFFFFF600
3FFDCCCEFD00
9FF20006FF50
7F900000DE30
010000001000
ENDCHAR
STARTCHAR Atilde
ENCODING 195
SWIDTH 765 0
DWIDTH 11 0
BBX 11 15 0 -1
BITMAP
000494360000
004FFFFF1000
003C5BD50000
000013000000
0000BF700000
0004FFE10000
000BFFF70000
004FFFFE1000
00BFE6FF7000
03FFB4EFD000
0AFFFFFFF600
3FFDCCCEFD00
9FF20006FF50
7F900000DE30
010000001000
ENDCHAR
STARTCHAR Adieresis
ENCODING 196
SWIDTH 765 0
DWIDTH 11 0
BBX 11 15 0 -1
BITMAP
004940692000
00BFB0EF8000
007D70AD4000
000013000000
0000BF700000
0004FFE10000
000BFFF70000
004FFFFE1000
00BFE6FF7000
03FFB4EFD000
0AFFFFFFF600
3FFDCCCEFD00
9FF20006FF50
7F900000DE30
010000001000
ENDCHAR
STARTCHAR Aring
ENCODING 197
SWIDTH 765 0
DWIDTH 11 0
BBX 11 14 0 -1
BITMAP
00009C600000
0005B3E10000
0005B5E10000
0000DF900000
0004FFE10000
000BFFF70000
004FFFFE1000
00BFE6FF7000
03FFB4EFD000
0AFFFFFFF600
3FFDCCCEFD00
AFF20006FF50
7F900000DE30
010000001000
ENDCHAR
STARTCHAR AE
ENCODING 198
SWIDTH 1148 0
DWIDTH 16 0
BBX 16 12 0 -1
BITMAP
0000000144444441
0000001CFFFFFFFA
000000BFFFFFFFF9
00000AFFFF633330
00008FFEFF866400
0007FFC5FFFFFF20
006FFE46FFFFFE10
04FFFFFFFF411100
3EFFEEEEFF977773
DFF40004FFFFFFFA
9F500001CFFFFFF7
0100000000000000
ENDCHAR
STARTCHAR Ccedilla
ENCODING 199
SWIDTH 679 0
DWIDTH 10 0
BBX 10 14 0 -3
BITMAP
0000354100
004DFFFE70
07FFFFFFF1
2FFE624B70
7FF3000000
9FD0000000
9FE0000000
6FF6000100
1DFFA68EB0
03EFFFFFF1
0019EFFB40
00008EB000
00005AD000
00004A4000
ENDCHAR
STARTCHAR Egrave
ENCODING 200
SWIDTH 638 0
DWIDTH 9 0
BBX 9 14 0 0
BITMAP
0005200000
004FFD6000
002AEF9000
0344586400
5FFFFFFF70
7FFFFFFF70
7FF4333300
7FF6663000
7FFFFFF000
7FFFFFD000
7FF2220000
7FF8777720
7FFFFFFF80
4EFFFFFF50
ENDCHAR
STARTCHAR Eacute
ENCODING 201
SWIDTH 638 0
DWIDTH 9 0
BBX 9 14 0 0
BITMAP
0000275000
001DFFD000
001EEA4000
0346544400
5FFFFFFF70
7FFFFFFF70
7FF4333300
7FF6663000
7FFFFFF000
7FFFFFD000
7FF2220000
7FF8777720
7FFFFFFF80
4EFFFFFF50
ENDCHAR
STARTCHAR Ecircumflex
ENCODING 202
SWIDTH 638 0
DWIDTH 9 0
BBX 9 14 0 0
BITMAP
0015951000
02EFFFE300
01DC7CE100
0344444400
5FFFFFFF70
7FFFFFFF70
7FF4333300
7FF6663000
7FFFFFF000
7FFFFFD000
7FF2220000
7FF8777720
7FFFFFFF80
4EFFFFFF50
ENDCHAR
STARTCHAR Edieresis
ENCODING 203
SWIDTH 638 0
DWIDTH 9 0
BBX 9 14 0 0
BITMAP
0296049400
08FE0BFB00
04DA07D700
0344444400
5FFFFFFF70
7FFFFFFF70
7FF4333300
7FF6663000
7FFFFFF000
7FFFFFD000
7FF2220000
7FF8777720
7FFFFFFF80
4EFFFFFF50
ENDCHAR
STARTCHAR Igrave
ENCODING 204
SWIDTH 267 0
DWIDTH 4 0
BBX 5 14 -1 0
BITMAP
251000
9FFB30
5CFF50
005700
05FF10
06FF20
06FF20
06FF20
06FF20
06FF20
06FF20
06FF20
06FF20
03ED00
ENDCHAR
STARTCHAR Iacute
ENCODING 205
SWIDTH 269 0
DWIDTH 4 0
BBX 5 14 0 0
BITMAP
015810
7EFF60
7FD810
052000
4FF100
5FF200
5FF200
5FF200
5FF200
5FF200
5FF200
5FF200
5FF200
3ED100
ENDCHAR
STARTCHAR Icircumflex
ENCODING 206
SWIDTH 270 0
DWIDTH 4 0
BBX 6 14 -1 0
BITMAP
038720
BFFFF8
8E89E5
003200
04FF10
05FF20
05FF20
05FF20
05FF20
05FF20
05FF20
05FF20
05FF20
03ED10
ENDCHAR
STARTCHAR Idieresis
ENCODING 207
SWIDTH 268 0
DWIDTH 4 0
BBX 8 14 -2 0
BITMAP
08812970
3FF46FF1
1CC23DB0
00032000
004FF100
005FF200
005FF200
005FF200
005FF200
005FF200
005FF200
005FF200
005FF200
003ED100
ENDCHAR
STARTCHAR Eth
ENCODING 208
SWIDTH 775 0
DWIDTH 11 0
BBX 11 11 0 0
BITMAP
004444200000
06FFFFFC3000
07FFFFFFE400
07FF448FFD00
08FF1006FF50
9FFFF201FF70
6DFFB102FF60
07FF0009FF30
07FF88CFFB00
07FFFFFFC100
04EFFFD71000
ENDCHAR
STARTCHAR Ntilde
ENCODING 209
SWIDTH 720 0
DWIDTH 10 0
BBX 10 14 0 0
BITMAP
0007926400
008FFFFB00
006B6CB200
0320000130
5FF3000DF7
7FFD100EF8
7FFFA00EF8
7FFFF60EF8
7FFBFF3EF8
7FF2DFDEF8
7FF03FFFF8
7FF007FFF8
7FF000AFF8
4EC0001CE5
ENDCHAR
STARTCHAR Ograve
ENCODING 210
SWIDTH 775 0
DWIDTH 11 0
BBX 11 15 0 -1
BITMAP
000340000000
000DFEA10000
0007DFF10000
000148800000
006EFFFD4000
07FFFFFFF500
2FFE526EFE10
7FF30006FF50
9FE00001FF70
9FE00001FF70
6FF50007FF40
1EFF859FFC00
04FFFFFFE300
003CFFFB2000
000012100000
ENDCHAR
STARTCHAR Oacute
ENCODING 211
SWIDTH 775 0
DWIDTH 11 0
BBX 11 15 0 -1
BITMAP
000003840000
0003DFFB0000
0002FE930000
000166400000
006EFFFD4000
07FFFFFFF500
2FFE526EFE10
7FF30006FF50
9FE00001FF70
9FE00001FF70
6FF50007FF40
1EFF859FFC00
04FFFFFFE300
003CFFFB2000
000012100000
ENDCHAR
STARTCHAR Ocircumflex
ENCODING 212
SWIDTH 775 0
DWIDTH 11 0
BBX 11 15 0 -1
BITMAP
000159510000
003FFFFE2000
001DB7CD1000
000145400000
006EFFFD4000
07FFFFFFF500
2FFE526EFE10
7FF30006FF50
9FE00001FF70
9FE00001FF70
6FF50007FF40
1EFF859FFC00
04FFFFFFE300
003CFFFB2000
000012100000
ENDCHAR
STARTCHAR Otilde
ENCODING 213
SWIDTH 775 0
DWIDTH 11 0
BBX 11 15 0 -1
BITMAP
000287181000
000DFFFF6000
000A78D90000
000145400000
006EFFFD4000
07FFFFFFF500
2FFE526EFE10
7FF30006FF50
9FE00001FF70
9FE00001FF70
6FF50007FF40
1EFF859FFC00
04FFFFFFE300
003CFFFB2000
000012100000
ENDCHAR
STARTCHAR Odieresis
ENCODING 214
SWIDTH 775 0
DWIDTH 11 0
BBX 11 15 0 -1
BITMAP
004940692000
00BFB0FF7000
007D70AD4000
000145400000
006EFFFD4000
07FFFFFFF500
2FFE526EFE10
7FF30006FF50
9FE00001FF70
9FE00001FF70
6FF50007FF40
1EFF859FFC00
04FFFFFFE300
003CFFFB2000
000012100000
ENDCHAR
STARTCHAR multiply
ENCODING 215
SWIDTH 521 0
DWIDTH 7 0
BBX 7 7 0 0
BITMAP
4D603D70
8FF8EFC0
0AFFFD20
03FFF700
3EFFFF60
8FD2AFD0
17200730
ENDCHAR
STARTCHAR Oslash
ENCODING 216
SWIDTH 775 0
DWIDTH 11 0
BBX 11 12 0 -1
BITMAP
0001455D8000
006EFFFFD000
07FFFFFFF400
2FFE5AFFFE10
7FF32FFCFF50
9FD08FE2FF70
9FE1EF81FF70
6FFCFE17FF40
1EFFFC9FFC00
04FFFFFFE300
00DFFFFB2000
005A22100000
ENDCHAR
STARTCHAR Ugrave
ENCODING 217
SWIDTH 726 0
DWIDTH 10 0
BBX 10 15 0 -1
BITMAP
0025100000
00AFFB2000
005CFF4000
0320250141
6FE0000CF8
7FF1000DF9
7FF1000DF9
7FF1000DF9
7FF1000DF9
6FF1000EF9
4FF5003FF7
0DFE76DFF2
05FFFFFF70
005DFFE600
0000220000
ENDCHAR
STARTCHAR Uacute
ENCODING 218
SWIDTH 726 0
DWIDTH 10 0
BBX 10 15 0 -1
BITMAP
0000038400
0003DFFB00
0002FE9300
0320200141
6FE0000CF8
7FF1000DF9
7FF1000DF9
7FF1000DF9
7FF1000DF9
6FF1000EF9
4FF5003FF7
0DFE76DFF2
05FFFFFF70
005DFFE600
0000220000
ENDCHAR
STARTCHAR Ucircumflex
ENCODING 219
SWIDTH 726 0
DWIDTH 10 0
BBX 10 15 0 -1
BITMAP
0001684000
006FFFFD00
003EA7DB00
0320000141
6FE0000CF8
7FF1000DF9
7FF1000DF9
7FF1000DF9
7FF1000DF9
6FF1000EF9
4FF5003FF7
0DFE76DFF2
05FFFFFF70
005DFFE600
0000220000
ENDCHAR
STARTCHAR Udieresis
ENCODING 220
SWIDTH 726 0
DWIDTH 10 0
BBX 10 15 0 -1
BITMAP
0079218800
01FF64FF30
00BD32CC10
0320000141
6FE0000CF8
7FF1000DF9
7FF1000DF9
7FF1000DF9
7FF1000DF9
6FF1000EF9
4FF5003FF7
0DFE76DFF2
05FFFFFF70
005DFFE600
0000220000
ENDCHAR
STARTCHAR Yacute
ENCODING 221
SWIDTH 686 0
DWIDTH 10 0
BBX 10 14 0 0
BITMAP
0000267000
000BFFF100
000CFB6000
0511100430
9FB0003FF3
8FF600CFF2
0DFE16FF70
03FFBEFC00
008FFFF200
000CFF7000
0007FF1000
0007FF1000
0007FF1000
0004FD0000
ENDCHAR
STARTCHAR Thorn
ENCODING 222
SWIDTH 634 0
DWIDTH 9 0
BBX 9 11 0 0
BITMAP
0320000000
6FE0000000
7FFDDB5000
7FFFFFF900
7FFA9DFF30
7FF001FF70
7FF003FF60
7FFDDFFF20
7FFFFFF600
7FF9972000
4EC0000000
ENDCHAR
STARTCHAR germandbls
ENCODING 223
SWIDTH 633 0
DWIDTH 9 0
BBX 9 12 0 -1
BITMAP
0047861000
0BFFFFD100
5FFBAFF300
6FF06FE100
7FF0EF6000
7FF1FF6000
7FF09FF800
7FF007FF40
7FF063DF70
7FF4FFFF50
6FE3DFF900
1640000000
ENDCHAR
STARTCHAR agrave
ENCODING 224
SWIDTH 596 0
DWIDTH 8 0
BBX 8 11 0 0
BITMAP
005B7200
00AFFF50
0016BE20
00152152
05EFFDFB
3FFFFFFC
8FF43EFC
9FD00CFC
7FFAAFFC
1DFFFFFC
02AEC9E9
ENDCHAR
STARTCHAR aacute
ENCODING 225
SWIDTH 596 0
DWIDTH 8 0
BBX 8 11 0 0
BITMAP
00027B40
006FFF80
003EA510
00152152
05EFFDFB
3FFFFFFC
8FF43EFC
9FD00CFC
7FFAAFFC
1DFFFFFC
02AEC9E9
ENDCHAR
STARTCHAR acircumflex
ENCODING 226
SWIDTH 596 0
DWIDTH 8 0
BBX 8 11 0 0
BITMAP
0038C930
02FFFFF4
00A948B1
00152152
05EFFDFB
3FFFFFFC
8FF43EFC
9FD00CFC
7FFAAFFC
1DFFFFFC
02AEC9E9
ENDCHAR
STARTCHAR atilde
ENCODING 227
SWIDTH 596 0
DWIDTH 8 0
BBX 8 11 0 0
BITMAP
005C94B1
02FFFFF3
00936A40
00152152
05EFFDFB
3FFFFFFC
8FF43EFC
9FD00CFC
7FFAAFFC
1DFFFFFC
02AEC9E9
ENDCHAR
STARTCHAR adieresis
ENCODING 228
SWIDTH 596 0
DWIDTH 8 0
BBX 8 11 0 0
BITMAP
04C807C6
09FE0CFA
03A605A4
00152152
05EFFDFB
3FFFFFFC
8FF43EFC
9FD00CFC
7FFAAFFC
1DFFFFFC
02AEC9E9
ENDCHAR
STARTCHAR aring
ENCODING 229
SWIDTH 596 0
DWIDTH 8 0
BBX 8 11 0 0
BITMAP
00017300
000B5C00
000A8C00
00157252
05EFFDFB
3FFFFFFC
8FF43EFC
9FD00CFC
7FFAAFFC
1DFFFFFC
02AEC9E9
ENDCHAR
STARTCHAR ae
ENCODING 230
SWIDTH 910 0
DWIDTH 13 0
BBX 13 9 0 -1
BITMAP
00475102563000
2DFFFEAFFFF800
5FFDEFFFDDFF30
08703FFE34FF50
19DDBFFFFFFE20
8FB67EFE424300
8FD9CFFFFFFE00
2DFFE64CFFE800
00110000110000
ENDCHAR
STARTCHAR ccedilla
ENCODING 231
SWIDTH 524 0
DWIDTH 7 0
BBX 7 11 0 -3
BITMAP
00267400
06EFFFB0
3FFFFFC0
8FF42720
9FE00000
6FFA8D50
1DFFFFE0
01AFFD50
001EF500
0019D700
00088100
ENDCHAR
STARTCHAR egrave
ENCODING 232
SWIDTH 573 0
DWIDTH 8 0
BBX 8 12 0 -1
BITMAP
008A5100
00EFFE10
0027CC00
00278500
07FFFFC1
3FFECFF7
8FF42DFA
9FFFFFF5
7FF52340
1EFFFFF3
03CFFFD2
00013200
ENDCHAR
STARTCHAR eacute
ENCODING 233
SWIDTH 573 0
DWIDTH 8 0
BBX 8 12 0 -1
BITMAP
00037B20
008FFF60
005EA500
00278500
07FFFFC1
3FFECFF7
8FF42DFA
9FFFFFF5
7FF52340
1EFFFFF3
03CFFFD2
00013200
ENDCHAR
STARTCHAR ecircumflex
ENCODING 234
SWIDTH 573 0
DWIDTH 8 0
BBX 8 12 0 -1
BITMAP
005AB610
09FFFFD0
03B75B70
00278500
07FFFFC1
3FFECFF7
8FF42DFA
9FFFFFF5
7FF52340
1EFFFFF3
03CFFFD2
00013200
ENDCHAR
STARTCHAR edieresis
ENCODING 235
SWIDTH 573 0
DWIDTH 8 0
BBX 8 12 0 -1
BITMAP
0AC22BB1
1FF65FF3
08921990
00278500
07FFFFC1
3FFECFF7
8FF42DFA
9FFFFFF5
7FF52340
1EFFFFF3
03CFFFD2
00013200
ENDCHAR
STARTCHAR igrave
ENCODING 236
SWIDTH 255 0
DWIDTH 4 0
BBX 5 11 -1 0
BITMAP
4B7200
9FFF50
16BE30
005300
06FE00
07FF00
07FF00
07FF00
07FF00
07FF00
04EC00
ENDCHAR
STARTCHAR iacute
ENCODING 237
SWIDTH 255 0
DWIDTH 4 0
BBX 5 11 0 0
BITMAP
048B10
AFFF40
7E9400
053000
6FE000
7FF000
7FF000
7FF000
7FF000
7FF000
4EC000
ENDCHAR
STARTCHAR icircumflex
ENCODING 238
SWIDTH 255 0
DWIDTH 4 0
BBX 6 11 -1 0
BITMAP
27BA50
EFFFF8
7A57B3
005300
06FE00
07FF00
07FF00
07FF00
07FF00
07FF00
04EC00
ENDCHAR
STARTCHAR idieresis
ENCODING 239
SWIDTH 255 0
DWIDTH 4 0
BBX 7 11 -2 0
BITMAP
2BB04C80
5FF28FE0
19803A60
00053000
006FE000
006FF000
006FF000
006FF000
006FF000
006FF000
004EC000
ENDCHAR
STARTCHAR eth
ENCODING 240
SWIDTH 585 0
DWIDTH 8 0
BBX 8 13 0 -1
BITMAP
00002100
005AD600
00BFF700
007EEF60
00363DE1
03CFFEF7
1EFFFFFA
8FE43DFC
9FC009FC
7FF76EF9
1EFFFFE2
02BFFC30
00011000
ENDCHAR
STARTCHAR ntilde
ENCODING 241
SWIDTH 606 0
DWIDTH 8 0
BBX 8 11 0 0
BITMAP
008C7690
06FFFFD0
02928A20
15315400
6FEDFFB0
7FFFFFF7
7FF62CFC
7FF008FE
7FF008FE
7FF008FE
4EC005EB
ENDCHAR
STARTCHAR ograve
ENCODING 242
SWIDTH 600 0
DWIDTH 8 0
BBX 8 12 0 -1
BITMAP
007A6100
00CFFF20
0027CE10
00278400
06FFFFB1
3FFFFFF9
8FF30BFE
9FD007FF
6FF96EFC
1DFFFFF5
02AFFD50
00011000
ENDCHAR
STARTCHAR oacute
ENCODING 243
SWIDTH 600 0
DWIDTH 8 0
BBX 8 12 0 -1
BITMAP
00027B30
006FFF80
004EA500
00278400
06FFFFB1
3FFFFFF9
8FF30BFE
9FD007FF
6FF96EFC
1DFFFFF5
02AFFD50
00011000
ENDCHAR
STARTCHAR ocircumflex
ENCODING 244
SWIDTH 600 0
DWIDTH 8 0
BBX 8 12 0 -1
BITMAP
0049B720
07FFFFE0
02B74A80
00278400
06FFFFB1
3FFFFFF9
8FF30BFE
9FD007FF
6FF96EFC
1DFFFFF5
02AFFD50
00011000
ENDCHAR
STARTCHAR otilde
ENCODING 245
SWIDTH 600 0
DWIDTH 8 0
BBX 8 12 0 -1
BITMAP
008C7780
07FFFFD0
02928920
00278400
06FFFFB1
3FFFFFF9
8FF30BFE
9FD007FF
6FF96EFC
1DFFFFF5
02AFFD50
00011000
ENDCHAR
STARTCHAR odieresis
ENCODING 246
SWIDTH 600 0
DWIDTH 8 0
BBX 8 12 0 -1
BITMAP
09C31BB1
0FF73FF4
07A21991
00278400
06FFFFB1
3FFFFFF9
8FF30BFE
9FD007FF
6FF96EFC
1DFFFFF5
02AFFD50
00011000
ENDCHAR
STARTCHAR divide
ENCODING 247
SWIDTH 503 0
DWIDTH 7 0
BBX 7 8 0 0
BITMAP
00394000
009FA000
00394000
6CDDDD60
9FFFFF90
02374200
009F9000
006E7000
ENDCHAR
STARTCHAR oslash
ENCODING 248
SWIDTH 600 0
DWIDTH 8 0
BBX 8 13 0 -3
BITMAP
00000371
00000CF9
00279FF5
06FFFFE1
3FFFFFF9
8FF31BFE
9FD007FF
7FF96EFC
1DFFFFF5
09FFFD50
1FF72000
2EE10000
00100000
ENDCHAR
STARTCHAR ugrave
ENCODING 249
SWIDTH 606 0
DWIDTH 8 0
BBX 8 11 0 0
BITMAP
007A6100
00DFFF20
0027CD10
15300153
6FF007FD
7FF008FE
7FF008FE
6FF109FE
3FFB8EFE
0BFFFFFE
01AEC8EB
ENDCHAR
STARTCHAR uacute
ENCODING 250
SWIDTH 606 0
DWIDTH 8 0
BBX 8 11 0 0
BITMAP
00016B60
003FFFB0
001EB610
15300153
6FF007FD
7FF008FE
7FF008FE
6FF109FE
3FFB8EFE
0BFFFFFE
01AEC8EB
ENDCHAR
STARTCHAR ucircumflex
ENCODING 251
SWIDTH 606 0
DWIDTH 8 0
BBX 8 11 0 0
BITMAP
0049C720
06FFFFF0
02B84A90
15300153
6FF007FD
7FF008FE
7FF008FE
6FF109FE
3FFB8EFE
0BFFFFFE
01AEC8EB
ENDCHAR
STARTCHAR udieresis
ENCODING 252
SWIDTH 606 0
DWIDTH 8 0
BBX 8 11 0 0
BITMAP
08C41BB2
0EF82FF5
06A30891
15300153
6FF007FD
7FF008FE
7FF008FE
6FF109FE
3FFB8EFE
0BFFFFFE
01AEC8EB
ENDCHAR
STARTCHAR yacute
ENCODING 253
SWIDTH 604 0
DWIDTH 8 0
BBX 9 15 0 -4
BITMAP
00026B5000
004FFFA000
002EB61000
1720005300
AFC004FF20
6FF60BFE00
0CFE4FF700
03FFEFE100
009FFF9000
001EFF2000
000EFA0000
006FF40000
00CFC00000
00DF500000
0013000000
ENDCHAR
STARTCHAR thorn
ENCODING 254
SWIDTH 580 0
DWIDTH 8 0
BBX 8 15 0 -4
BITMAP
4FA00000
7FD00000
7FD00000
7FD25200
7FEFFF70
7FFFFFF4
7FF53EFA
7FE00BFB
7FFA9FF8
7FFFFFE1
7FDBEB20
7FC00000
7FC00000
5FB00000
02100000
ENDCHAR
STARTCHAR ydieresis
ENCODING 255
SWIDTH 604 0
DWIDTH 8 0
BBX 9 15 0 -4
BITMAP
07C609C300
0CFB0FF700
05A407A200
1720005300
AFC004FF20
6FF60BFE00
0CFE4FF700
03FFEFE100
009FFF9000
001EFF2000
000EFA0000
006FF40000
00CFC00000
00DF500000
0013000000
ENDCHAR
STARTCHAR dotlessi
ENCODING 305
SWIDTH 255 0
DWIDTH 4 0
BBX 3 8 0 0
BITMAP
0530
6FE0
7FF0
7FF0
7FF0
7FF0
7FF0
4EC0
ENDCHAR
STARTCHAR Lslash
ENCODING 321
SWIDTH 687 0
DWIDTH 10 0
BBX 10 11 0 0
BITMAP
0023000000
00EF600000
01FF700000
01FF700000
01FFDD4000
5CFFFE4000
8FFF800000
02FF700000
01FF711110
01FFFFFFF2
00CFFFFFE2
ENDCHAR
STARTCHAR lslash
ENCODING 322
SWIDTH 468 0
DWIDTH 7 0
BBX 7 11 0 0
BITMAP
01BC2000
02FF4000
02FF4000
02FF4000
02FFCD20
6DFFFD30
AFFF6000
03FF4000
02FF9200
00EFF900
006DF800
ENDCHAR
STARTCHAR OE
ENCODING 338
SWIDTH 1092 0
DWIDTH 15 0
BBX 15 11 0 0
BITMAP
0000344444444420
005DFFFFFFFFFFD0
06FFFFFFFFFFFFC0
2FFE623FF8333310
7FF3001FF9665000
9FD0001FFFFFF500
9FE0001FFFFFF400
6FF6001FF7221000
1DFFA67FFA777740
03EFFFFFFFFFFFD0
0029DFFFFFFFFFB0
ENDCHAR
STARTCHAR oe
ENCODING 339
SWIDTH 944 0
DWIDTH 13 0
BBX 13 9 0 -1
BITMAP
00267400465000
06FFFFBDFFFD20
3FFFFFFFFBFFA0
8FF31BFF83BFC0
9FD007FFFFFF70
7FF86EFF923500
1DFFFFFFFFFF60
02BFFD68EFFC30
00012000010000
ENDCHAR
STARTCHAR Scaron
ENCODING 352
SWIDTH 583 0
DWIDTH 8 0
BBX 8 15 0 -1
BITMAP
02832840
0AFFFFC0
028DE930
00255300
07FFFFA0
3FFFEFF2
6FF20850
5FFA5100
0CFFFFA1
016CFFF8
07201DFC
8FE54EFB
5FFFFFF5
05DFFD50
00011000
ENDCHAR
STARTCHAR scaron
ENCODING 353
SWIDTH 489 0
DWIDTH 7 0
BBX 7 12 0 -1
BITMAP
2B74A800
7FFFFF00
049B7200
01676200
1EFFFF10
5FE79900
4FFC9300
0AFFFF30
1757EF70
8FFDFF50
3BFFE900
00010000
ENDCHAR
STARTCHAR Ydieresis
ENCODING 376
SWIDTH 686 0
DWIDTH 10 0
BBX 10 14 0 0
BITMAP
0188039600
05FF28FE00
02CB15D900
0510000430
9FB0003FF3
8FF600CFF2
0DFE16FF70
03FFBEFC00
008FFFF200
000CFF7000
0007FF1000
0007FF1000
0007FF1000
0004FD0000
ENDCHAR
STARTCHAR Zcaron
ENCODING 381
SWIDTH 643 0
DWIDTH 9 0
BBX 9 14 0 0
BITMAP
0086167000
04FFFFF300
006BFB6000
1444444300
9FFFFFFF40
8FFFFFFF40
02228FF900
0002EFD100
000CFF3000
008FF70000
04FFB00000
1EFF766610
8FFFFFFF90
5FFFFFFF70
ENDCHAR
STARTCHAR zcaron
ENCODING 382
SWIDTH 586 0
DWIDTH 8 0
BBX 8 11 0 0
BITMAP
03B74A80
07FFFFE0
0059B720
05666650
4FFFFFF8
3FFFFFF6
011AFF70
01AFF600
1CFFB773
9FFFFFFC
5FFFFFFA
ENDCHAR
STARTCHAR florin
ENCODING 402
SWIDTH 529 0
DWIDTH 7 0
BBX 8 15 0 -4
BITMAP
00001450
0003EFF2
000DFFD1
002FF500
08EFFED1
0DFFFFF2
05BFE750
009FC000
00BFB000
00CF9000
00EF7000
04FF5000
CFFE1000
EFD40000
11000000
ENDCHAR
STARTCHAR circumflex
ENCODING 710
SWIDTH 603 0
DWIDTH 8 0
BBX 6 3 1 8
BITMAP
059B72
7FFFFE
2B74A8
ENDCHAR
STARTCHAR caron
ENCODING 711
SWIDTH 600 0
DWIDTH 8 0
BBX 6 3 1 8
BITMAP
3B74A7
7FFFFE
05AB72
ENDCHAR
STARTCHAR dotaccent
ENCODING 729
SWIDTH 285 0
DWIDTH 4 0
BBX 4 4 0 9
BITMAP
0330
2FF3
1FF3
0110
ENDCHAR
STARTCHAR ring
ENCODING 730
SWIDTH 378 0
DWIDTH 5 0
BBX 5 4 0 9
BITMAP
06C900
1E3B50
1D5B50
04A700
ENDCHAR
STARTCHAR ogonek
ENCODING 731
SWIDTH 570 0
DWIDTH 8 0
BBX 4 4 2 -3
BITMAP
0440
5FE1
7D91
1981
ENDCHAR
STARTCHAR tilde
ENCODING 732
SWIDTH 584 0
DWIDTH 8 0
BBX 6 3 1 8
BITMAP
2BB4A4
CFFFF8
564A80
ENDCHAR
STARTCHAR endash
ENCODING 8211
SWIDTH 561 0
DWIDTH 8 0
BBX 8 3 0 2
BITMAP
9EFFFFE7
BFFFFFF9
14444441
ENDCHAR
STARTCHAR emdash
ENCODING 8212
SWIDTH 693 0
DWIDTH 10 0
BBX 10 3 0 2
BITMAP
9EFFFFFFE5
BFFFFFFFF7
1444444441
ENDCHAR
STARTCHAR quoteleft
ENCODING 8216
SWIDTH 237 0
DWIDTH 3 0
BBX 3 6 0 5
BITMAP
0020
0BC0
5F20
9FB0
9FE0
3850
ENDCHAR
STARTCHAR quoteright
ENCODING 8217
SWIDTH 237 0
DWIDTH 3 0
BBX 3 6 0 5
BITMAP
0420
9FE0
9FE0
1CB0
5F40
5400
ENDCHAR
STARTCHAR quotesinglbase
ENCODING 8218
SWIDTH 237 0
DWIDTH 3 0
BBX 3 6 0 -3
BITMAP
3960
9FE0
6FD0
0C90
8D20
2100
ENDCHAR
STARTCHAR quotedblleft
ENCODING 8220
SWIDTH 482 0
DWIDTH 7 0
BBX 7 6 0 5
BITMAP
00200210
0BC05E40
5F20D800
9FB2FE30
9FE3FF50
38507810
ENDCHAR
STARTCHAR quotedblright
ENCODING 8221
SWIDTH 482 0
DWIDTH 7 0
BBX 7 6 0 5
BITMAP
04202300
9FE2FF40
9FE3FF50
1CB07F20
5F41CA00
54017100
ENDCHAR
STARTCHAR quotedblbase
ENCODING 8222
SWIDTH 482 0
DWIDTH 7 0
BBX 7 6 0 -3
BITMAP
39608810
9FE3FF50
6FD2EF40
0C906E10
8D22E700
21002000
ENDCHAR
STARTCHAR dagger
ENCODING 8224
SWIDTH 527 0
DWIDTH 7 0
BBX 8 14 0 -3
BITMAP
00164000
007FD000
008FE000
128FE210
BFFFFFF1
9FFFFFE1
008FE000
008FE000
008FE000
008FE000
008FE000
008FE000
008FD000
00396000
ENDCHAR
STARTCHAR daggerdbl
ENCODING 8225
SWIDTH 527 0
DWIDTH 7 0
BBX 8 14 0 -3
BITMAP
00164000
007FD000
008FE000
128FE210
BFFFFFF1
9FFFFFE1
008FE000
008FE000
7CDFFCB1
BFFFFFF2
25AFE540
008FE000
008FD000
00396000
ENDCHAR
STARTCHAR bullet
ENCODING 8226
SWIDTH 342 0
DWIDTH 5 0
BBX 5 5 0 2
BITMAP
046300
6FFF30
9FFF60
7FFF40
079500
ENDCHAR
STARTCHAR ellipsis
ENCODING 8230
SWIDTH 911 0
DWIDTH 13 0
BBX 13 3 0 0
BITMAP
39600593008810
9FE00EFA03FF60
7FB00BF701EE30
ENDCHAR
STARTCHAR perthousand
ENCODING 8240
SWIDTH 1223 0
DWIDTH 17 0
BBX 17 12 0 -1
BITMAP
00330002D100000000
0CFFA009C000000000
5F9AF22F4000000000
6F25F4AB0000000000
3FEEF4F30000000000
06DC5BA02100012000
00003F3BFF706FFC10
0000B95F9CF1FC9F60
0004F27F16F4F61F80
000C804FCEE1EECF60
005E1009EE604DFA00
001400000000000000
ENDCHAR
STARTCHAR guilsinglleft
ENCODING 8249
SWIDTH 383 0
DWIDTH 5 0
BBX 6 8 0 0
BITMAP
000320
006FD1
06FFC0
5FFC10
BFF600
2DFF50
02DFF1
002DA0
ENDCHAR
STARTCHAR guilsinglright
ENCODING 8250
SWIDTH 383 0
DWIDTH 5 0
BBX 6 8 0 0
BITMAP
040000
9FA000
7FFB00
08FFB0
01EFF1
1DFF50
AFF500
5E5000
ENDCHAR
STARTCHAR fraction
ENCODING 8260
SWIDTH 433 0
DWIDTH 6 0
BBX 8 12 0 -1
BITMAP
000001D2
000008C0
00002F40
00009C00
0002F400
000AB000
003F3000
00BA0000
04F20000
0C900000
4E200000
14000000
ENDCHAR
STARTCHAR Euro
ENCODING 8364
SWIDTH 612 0
DWIDTH 9 0
BBX 9 11 0 0
BITMAP
0004ACCB10
007FFFFF30
02FFEAA900
29FF744100
BFFFFFF600
1BFC333000
BFFFFFF500
5AFF877200
02FFB77600
009FFFFF30
0007DFFD10
ENDCHAR
STARTCHAR trademark
ENCODING 8482
SWIDTH 840 0
DWIDTH 12 0
BBX 12 6 0 3
BITMAP
9DDDD4C506C1
8CFEB6FE5FF3
02F904FFFFF3
02F904FEFEF3
02F904F748F3
009502A30491
ENDCHAR
STARTCHAR minus
ENCODING 8722
SWIDTH 581 0
DWIDTH 8 0
BBX 8 3 0 2
BITMAP
7EFFFFE8
9FFFFFFB
14444442
ENDCHAR
STARTCHAR f_f
ENCODING 64256
SWIDTH 803 0
DWIDTH 11 0
BBX 11 11 0 0
BITMAP
003AD603AD60
01EFFA2EFFA0
06FF937FF930
2AFF55AFE530
BFFFFFFFFFF0
AFFFFFFFFFD0
08FF119FE100
08FF008FE000
08FF008FE000
07FF008FE000
05EB006FA000
ENDCHAR
STARTCHAR fi
ENCODING 64257
SWIDTH 709 0
DWIDTH 10 0
BBX 10 11 0 0
BITMAP
002AC60AC2
01EFFA1FF5
06FF940791
2AFF530350
BFFFFF1FF5
AFFFFE1FF5
08FF101FF5
08FF001FF5
08FF001FF5
07FF001FF5
05FB000DE3
ENDCHAR
STARTCHAR fl
ENCODING 64258
SWIDTH 774 0
DWIDTH 11 0
BBX 11 11 0 0
BITMAP
002AC61BB100
01EFFA3FF400
06FF943FF400
2AFF533FF400
BFFFFF3FF400
AFFFFE3FF400
08FF103FF400
08FF003FF400
08FF002FF920
07FF001FFF90
05FB0007DF70
ENDCHAR
STARTCHAR f_f_i
ENCODING 64259
SWIDTH 1059 0
DWIDTH 15 0
BBX 15 11 0 0
BITMAP
003AD603AD61AA10
01EFFA2EFFA2FF40
06FF937FF9309910
2AFF55AFE5303400
BFFFFFFFFFF2FF30
AFFFFFFFFFD3FF40
08FF119FE103FF40
08FF008FE003FF40
08FF008FE003FF40
07FF008FE003FF40
05EB006FA001EE20
ENDCHAR
STARTCHAR .notdef
ENCODING -1
SWIDTH 500 0
DWIDTH 7 0
BBX 1 1 0 0
BITMAP
00
ENDCHAR
STARTCHAR .null
ENCODING -1
SWIDTH 0 0
DWIDTH 0 0
BBX 1 1 0 0
BITMAP
00
ENDCHAR
STARTCHAR nonmarkingreturn
ENCODING -1
SWIDTH 333 0
DWIDTH 5 0
BBX 1 1 0 0
BITMAP
00
ENDCHAR
STARTCHAR f_t
ENCODING -1
SWIDTH 814 0
DWIDTH 11 0
BBX 12 11 0 0
BITMAP
003AD6000000
01EFFA3DB000
06FF936FF100
2AFF559FF540
BFFFFFFFFFF2
AFFFFFFFFFF1
08FF116FF210
08FF006FF100
08FF005FF620
07FF001EFFB0
05EB0004CF90
ENDCHAR
STARTCHAR t_t
ENCODING -1
SWIDTH 794 0
DWIDTH 11 0
BBX 11 10 0 0
BITMAP
04D9006D7000
07FE00AFB000
2AFE55CFD530
BFFFFFFFFFD0
AFFFFFFFFFC0
08FE11AFC100
08FE00AFC000
07FF519FE510
03FFFA5FFF70
006DF708DF50
ENDCHAR
STARTCHAR l_l
ENCODING -1
SWIDTH 626 0
DWIDTH 9 0
BBX 9 11 0 0
BITMAP
3CA06C7000
7FF0AFC000
7FF0AFC000
7FF0AFC000
7FF0AFC000
7FF0AFC000
7FF0AFC000
7FF0AFC000
6FF59FE710
3FFF5FFF80
08DC07DE50
ENDCHAR
STARTCHAR j_j
ENCODING -1
SWIDTH 521 0
DWIDTH 7 0
BBX 9 15 -2 -4
BITMAP
003B805A50
006FE0AFB0
0029704A50
0005301510
006FE0AFA0
007FF0AFB0
007FF0AFB0
007FF0AFB0
007FF0AFB0
007FF0AFB0
007FE0AFB0
03CFD1CFA0
BFFF6EFF60
BFE71FFB00
1310023000
ENDCHAR
ENDFONT
